<svg class="illu_lp_spe" xmlns="http://www.w3.org/2000/svg" xmlns:xlink="http://www.w3.org/1999/xlink" width="368.229" height="362.657" viewBox="0 0 368.229 362.657">
    <defs>
        <linearGradient id="prefix__linear-gradient" x2="1" y1=".5" y2=".5" gradientUnits="objectBoundingBox">
            <stop offset="0" stop-color="#fdc"/>
            <stop offset="1" stop-color="#ffbc97"/>
        </linearGradient>
        <linearGradient id="prefix__linear-gradient-2" x1=".573" x2="1.524" y1=".474" y2=".474" xlink:href="#prefix__linear-gradient"/>
        <style>
            .prefix__cls-2{fill:#123a7c}.prefix__cls-3{fill:#4b8df8}.prefix__cls-5{fill:url(#prefix__linear-gradient)}.prefix__cls-7{fill:#fa7070}.prefix__cls-9{fill:#fff}.prefix__cls-15{fill:#4082ed}.prefix__cls-19{fill:#cde0fe}
        </style>
    </defs>
    <g id="prefix__Illustration" transform="translate(216.649 -173.536)">
        <g id="prefix__Groupe_32" data-name="Groupe 32" transform="translate(-216.649 196.849)">
            <path id="prefix__Tracé_36" d="M-9.08 488c-10.182-1.966-20.013-3.883-31.327-2.748-22.743 2.283-45.479 4.656-68.219 6.984-12.621 1.292-37.318 3.738-49.555.281-53.052-14.98-30.05-72.82-34.271-115.25-2.328-23.395-14.056-44.519-20.59-67.038-12.784-44.048 9.351-99.7 51.581-116.557 30.811-12.3 66.6-18.322 97.308-5.776 21 8.578 40.591 26.487 52.3 46.536 12.78 21.874 20.126 38.991 46.818 46.192 20.8 5.613 42.734 3.82 64.079 6.441 9.729 1.193 20.572 4.2 25.24 13.138 7.041 13.482-4.466 28.917-7.54 43.918-3.883 18.932 8.464 31.339 16.224 46.684 9.086 17.963 15.167 39.174 5.393 58.351-4.39 8.608-11.607 15.668-19.657 21.375C86.8 492.9 46.282 494.318 9.182 490.879A184.626 184.626 0 01-9.08 488z" data-name="Tracé 36" transform="translate(216.649 -180.958)" style="fill:rgba(75,141,248,.27)"/>
            <g id="prefix__Groupe_29" data-name="Groupe 29" transform="translate(26.985 26.669)">
                <path id="prefix__Tracé_39" d="M-79.926 214.967s-114.459 30.24-117.439 34.322-17.15 15.263-6.341 59.257 18.642 103.19 49.96 95.59 79.415-14.312 80.158-20.65S-50.236 207-79.926 214.967z" class="prefix__cls-2" data-name="Tracé 39" transform="translate(207.711 -139.493)"/>
                <path id="prefix__Tracé_40" d="M-87.191 214.786s-103.824 27.435-116.222 33.555c-4.481 11.465 13.859 11.326 16.719 17.045 8.947 17.9 5.643 35.524-7.778 48.945 9.188-.184 16.686 4.475 21.16 13.421 6.018 18 .5 26.3-6.619 31.877 5.68 3.53 11.465 6.712 15.937 15.659 3.566 10.7 10.378 21.42 2.576 28.739.139-.03.269-.039.408-.072 31.318-7.6 103.715-23.048 100.56-28.6-12.395-21.788 9.176-153.485-26.741-160.569z" class="prefix__cls-3" data-name="Tracé 40" transform="translate(214.976 -139.312)"/>
                <path id="prefix__Tracé_41" d="M-4.228 260.715l-179.507 70.664 24.337 10.927a192.9 192.9 0 00177.046-9.834l45.152-26.64c15.65-9.234 10.734-33.048-7.292-35.334z" data-name="Tracé 41" transform="translate(256.131 -46.561)" style="fill:#f4e4e5"/>
                <path id="prefix__Tracé_42" d="M-166.317 235.751s25.539-17.9 32.438 20.131c2.938 16.212 3.539 20.321 3.539 20.321 21.625 3.355 24.584 11.154 52.01 14.354 20.973 0 31.786 11.184 31.786 11.184s3.355 8.388 1.957 12.3-6.151 4.753-6.151 4.753.091 3.261-1.12 4.568-2.887-10.535-6.712-13.05-1.117 4.288-2.328 5.034-6.057-4.194-9.692-10.254-16.873 4.143-72.983-5.776c-17.617-17.473-22.744-63.565-22.744-63.565z" class="prefix__cls-5" data-name="Tracé 42" transform="translate(291.306 -105.471)"/>
                <path id="prefix__Tracé_43" d="M-127.6 272.711c-1.44-3.43-3.282-9.1-4.873-13.394-15.182-40.986-33.839-34.829-33.839-34.829s4.514 33.2 13.1 58.8c6.464-1.555 20.076-7.316 25.612-10.577z" data-name="Tracé 43" transform="translate(291.306 -120.386)" style="fill:#ef6a6a"/>
                <path id="prefix__Tracé_44" d="M-75.549 373.266c-10.964 10.692-36.913 17.582-56.464 17.271-9.08-.091-13.681-1.365-24.554-2.932-23.579-42.131-24.524-82.927-24.524-82.927l-5.592 1.48s-12.3-18.657-12.661-42.5c-.359-23.893 37.49-36.735 40.844-37.852 27.2-9.351 50.513-1.836 68 5.012 18.477 40.65 2.646 97.307 14.951 142.448z" class="prefix__cls-7" data-name="Tracé 44" transform="translate(224.604 -125.903)"/>
                <path id="prefix__Tracé_45" d="M-153.124 326.6c11.275 26.532 9.261 32.613 8.9 33.332-9.08-.091-16.776-1.791-20.892-5.372-20.155-25.149-28.187-80.487-28.187-80.487l2.237-.713s7.739-1.075 14.315-9.533c6.576-8.409 11.634-7.292 11.634-7.292s-4.294-12.123-9.351-19.953c8.947 6.353 18.835 27.066 19.192 37.49.4 10.426 29.485 11.142 29.485 11.142s-39.409 13.065-27.333 41.386z" data-name="Tracé 45" transform="translate(236.813 -95.296)" style="mix-blend-mode:multiply;isolation:isolate;fill:#e6e7e8"/>
                <path id="prefix__Tracé_46" d="M-179.1 220.066s-8.409 8.032-9.711 12.356c2.029 9.5 20.022 25.91 25.877 24.292 5.689-11.145 9.632-11.728 9.632-11.728l.625-14.986z" class="prefix__cls-9" data-name="Tracé 46" transform="translate(245.878 -128.65)"/>
                <path id="prefix__Tracé_47" d="M-177.052 247.993s9.3 1.881 11.193 10.079c6.582-.145 16.211-15.248 12.926-28.851-4.928-7.8-16.616-10.644-16.616-10.644z" class="prefix__cls-9" data-name="Tracé 47" transform="translate(269.627 -131.657)"/>
                <path id="prefix__Tracé_48" d="M-143.457 229.562c-1.923 4.653-7.156 10.692-14.675 18.7-1.745-6.89-18.253-10.961-25.276-16.734a9.211 9.211 0 01-2.506-2.863v-.045a3.422 3.422 0 01-.314-.716c-.8-2.461 1.075-4.2 4.07-5.414.136-.042.314-.133.492-.178 6.8-2.684 18.657-2.953 18.657-2.953s7.473-2.014 13.736-.091a7.033 7.033 0 01.894.269 11.7 11.7 0 013.131 1.658 6.52 6.52 0 012.24 2.817 7.23 7.23 0 01-.449 5.55z" data-name="Tracé 48" transform="translate(250.722 -131.94)" style="fill:#e25a5a"/>
                <g id="prefix__Groupe_24" data-name="Groupe 24" transform="translate(65.609 65.405)">
                    <g id="prefix__Groupe_23" data-name="Groupe 23">
                        <g id="prefix__Groupe_22" data-name="Groupe 22">
                            <path id="prefix__Tracé_49" d="M-144.327 243.668c-1.923 4.653-7.156 10.692-14.675 18.7-1.745-6.89-18.253-10.961-25.276-16.734a11.576 11.576 0 001.25-3.309 24.546 24.546 0 00.492-5.906c0-.447 0-.894-.042-1.344-.67-11.184-9.215-23.488 3.623-23.621 12.884-.133 28.812 6.129 28.812 6.576a143.784 143.784 0 000 15.345 32.459 32.459 0 00.894 6 4.339 4.339 0 001.208 2.283 16.293 16.293 0 003.714 2.01z" data-name="Tracé 49" transform="translate(185.983 -211.451)" style="fill:#ffc9ae"/>
                        </g>
                    </g>
                </g>
                <g id="prefix__Groupe_27" data-name="Groupe 27" transform="translate(66.725 65.405)" style="opacity:.3;mix-blend-mode:multiply;isolation:isolate">
                    <g id="prefix__Groupe_26" data-name="Groupe 26">
                        <g id="prefix__Groupe_25" data-name="Groupe 25">
                            <path id="prefix__Tracé_50" d="M-150.59 252.092a36.7 36.7 0 005.517-8.424 16.293 16.293 0 01-3.714-2.014 4.339 4.339 0 01-1.213-2.283 32.457 32.457 0 01-.894-6 143.779 143.779 0 010-15.345c0-.447-15.928-6.709-28.812-6.576-3.065.033-4.885.773-5.912 2.011 2.946 19.482 18.366 30.754 35.028 38.631z" data-name="Tracé 50" transform="translate(185.613 -211.451)" style="fill:#ef9d78"/>
                        </g>
                    </g>
                </g>
                <path id="prefix__Tracé_51" d="M-124.643 228.436a33.1 33.1 0 01-9.221 33.06c-3.608 3.53-1.558 5.785-9.128 7.15-38.278 1.208-45.177-37.816-45.6-50.057s67.928-49.026 63.949 9.847z" data-name="Tracé 51" transform="translate(246.317 -177.305)"/>
                <path id="prefix__Tracé_52" d="M-176.795 261.012a32.813 32.813 0 007.6 4.979c2.177 1.03 4.608 1.824 6.969 1.344a41.312 41.312 0 01-6.25-17.519c-.187-1.618.009-3.708 1.555-4.221 1.09-.359 2.237.326 3.1 1.081a14.593 14.593 0 014.744 8.512 21.735 21.735 0 014.565-14.9c3.044-3.85 8.2-6.09 12.92-6.951 5.287-.966 9.614 1.129 14.823.993 7.869-.205 15.36-1.169 20.155-8.3a22.188 22.188 0 002.2-19.228c-3.8 2.337-8.874 1.153-12.627-1.265s-6.7-5.9-10.254-8.6c-6.368-4.834-14.493-6.954-22.489-7.141a70.6 70.6 0 00-15.541 1.57c-4.662.942-9.4 1.507-12.591 5.381a38.1 38.1 0 00-2.434 4.762c-7.334-.136-17.525 7.482-14.261 22.368 2.879 13.17 7.399 28.062 17.816 37.135z" data-name="Tracé 52" transform="translate(232.892 -189.79)"/>
                <g id="prefix__Groupe_28" data-name="Groupe 28" transform="translate(60.905 63.239)">
                    <path id="prefix__Tracé_53" d="M-174.322 242.348l-12.766-19.011a2.651 2.651 0 01-.027-2.92l5.465-8.467a2.655 2.655 0 014.535.118l13.778 23.978a2.657 2.657 0 01-.987 3.632l-7.971 4.541z" class="prefix__cls-15" data-name="Tracé 53" transform="translate(187.541 -210.734)"/>
                    <path id="prefix__Tracé_54" d="M-175.11 240.181l-11.939-17.781a2.488 2.488 0 01-.024-2.733l4.7-7.078a2.482 2.482 0 014.239.109l12.887 22.429a2.485 2.485 0 01-.924 3.4l-7.047 3.406z" class="prefix__cls-7" data-name="Tracé 54" transform="translate(187.683 -209.285)"/>
                    <ellipse id="prefix__Ellipse_1" cx="1.951" cy="2.453" class="prefix__cls-9" data-name="Ellipse 1" rx="1.951" ry="2.453" transform="translate(4.923 9.348)"/>
                </g>
                <path id="prefix__Tracé_55" d="M-192.555 314.217c16.776-4.366 13.421-16.3 25.943-16.858l.951 1.766s.882-13.509 10.293-43.616c0 0-9.786-17.057-10.345-21.251s3.077-18.174 7.271-17.9a5.063 5.063 0 014.789 4.116s2.76.359 3.318 4.553c0 0 4.2-1.117 4.2 5.592 1.676.281 5.03 3.077 3.355 9.508s5.109 14.539.456 17.9c-1.018 11.462 5.695 57.044-13.506 77.174-13.705 5.594-29.829-11.928-36.725-20.984z" class="prefix__cls-5" data-name="Tracé 55" transform="translate(238.319 -136.137)"/>
                <path id="prefix__Tracé_56" d="M-21.2 277.566a4.955 4.955 0 01-2.461 3.578l-72.835 42.55a4.994 4.994 0 01-3.983.492l-51.63-15.124a5.037 5.037 0 01-.537-9.484l66.842-28.41 16.106-6.845a5.371 5.371 0 012.908-.314l41.518 7.787a5.012 5.012 0 014.072 5.77z" data-name="Tracé 56" transform="translate(312.668 -40.068)" style="fill:#2e3152"/>
                <path id="prefix__Tracé_57" d="M-21.7 277.566a4.955 4.955 0 01-2.461 3.578l-72.835 42.55c-1.211.713-.713-1.259-2.053-1.664l-51.63-15.121c-4.562-1.3-6.851-5.5-2.467-7.331l66.842-28.41 16.106-6.845a5.371 5.371 0 012.908-.314l41.52 7.791a5.012 5.012 0 014.07 5.766z" data-name="Tracé 57" transform="translate(313.167 -40.068)" style="fill:#efb4ba"/>
                <path id="prefix__Tracé_58" d="M-46.729 247.414a2.908 2.908 0 014.17 3.294l-15.6 60.9a4.955 4.955 0 01-2.461 3.578l-72.835 42.55a4.994 4.994 0 01-3.983.492l14.675-53.019 4.982-17.969a6.821 6.821 0 013.394-4.206z" class="prefix__cls-7" data-name="Tracé 58" transform="translate(349.628 -74.11)"/>
            </g>
            <g id="prefix__Groupe_31" data-name="Groupe 31" transform="translate(105.906 221.292)">
                <g id="prefix__Groupe_30" data-name="Groupe 30" transform="translate(25.91 69.919)">
                    <path id="prefix__Tracé_59" d="M-171.916 281.727l7.817 23.023s19.753 11.072 33.154-1.006c7.736-20 7.875-23.905 7.875-23.905z" class="prefix__cls-2" data-name="Tracé 59" transform="translate(175.168 -272.481)"/>
                    <path id="prefix__Tracé_60" d="M-172.785 279.705s2.44 7.857 4.656 11.574 36.988 4.78 45.543-1.637c4.025-9.56 3.8-10.918 3.8-10.918z" class="prefix__cls-3" data-name="Tracé 60" transform="translate(173.413 -274.735)"/>
                    <path id="prefix__Tracé_61" d="M-172.993 280.737l.628 1.637s3.524 4.275 18.621 3.9 33.38-.072 35.373-4.879-44.429-5.565-54.622-.658z" class="prefix__cls-15" data-name="Tracé 61" transform="translate(172.993 -277.403)"/>
                    <path id="prefix__Tracé_62" d="M-171.385 279.854l.519.987s2.9 2.585 15.312 2.358 27.45-.042 29.086-2.95-36.532-3.361-44.917-.395z" data-name="Tracé 62" transform="translate(176.24 -276.522)" style="fill:#e1e2ff"/>
                </g>
                <path id="prefix__Tracé_63" d="M-129.757 304.449a63.784 63.784 0 00-24.612-32.13c-5.945-3.995-13.02-7.038-20.113-6.051a8.875 8.875 0 00-5.725 2.7c-2.017 2.422-1.646 6.187.088 8.82s4.529 4.354 7.319 5.818c12.932 6.791 29.814 7.887 36.892 20.653.562 1.011 5.489-2.358 5.966-1.3" class="prefix__cls-2" data-name="Tracé 63" transform="translate(181.574 -230.347)"/>
                <path id="prefix__Tracé_64" d="M-136.382 311.239a21.057 21.057 0 00-8.763 6.679c-2.047 2.79-5.018 3.7-8.364 4.52a1.147 1.147 0 01-.815-.006 1.148 1.148 0 01-.453-.685c-.824-2.44-1.166-5.024-2.093-7.425a40.97 40.97 0 00-5.664-9.907 22.9 22.9 0 01-4.436-14.85c1.615 5.369 6.607 6.561 11.257 8.153 1.307.447 1.878.854 2.165-.559.377-1.833-1.084-4.662-1.594-6.441-.519-1.812-1.042-3.623-1.419-5.471a36.91 36.91 0 01-.682-5.275 16.358 16.358 0 01.42-5.341 13.918 13.918 0 011.848-3.877 20.709 20.709 0 017.355-6.761c-.471 1.64.3 3.373 1.238 4.8 1.06 1.609 1.9 3.983 3.279 5.269a2.155 2.155 0 002.068.592 2.635 2.635 0 001.2-1 25.083 25.083 0 002.473-5.166A16.077 16.077 0 01-134.1 264c2.977-3.343 6.688-5.815 11.3-6.018a3.642 3.642 0 011.446.16 3.569 3.569 0 011.567 1.477A14.072 14.072 0 01-118.3 271.2a13.234 13.234 0 01-2.564 5.151c-1.567 1.64-3.424 2.509-4.656 4.572-1.615 2.7 4.722 1.283 5.613 1.011a15.012 15.012 0 004.351-1.875 5.458 5.458 0 002.461-3.9 12.914 12.914 0 013.919 9.034c-.1 8.862-9.231 9.068-15.547 11.35 1.489 1.464 2.7 2.648 4.964 2.778a6.717 6.717 0 004.405-1.353c-.054.039-.021 2.766-.118 3.137a7.468 7.468 0 01-1.573 2.974 11.655 11.655 0 01-6.567 3.518c-4.309 1.021-8.7 1.879-12.77 3.642z" class="prefix__cls-2" data-name="Tracé 64" transform="translate(210.993 -246.712)"/>
                <path id="prefix__Tracé_65" d="M-151 329.4c-4.423-2.437-6.661-7.642-7.213-12.661s.254-10.082.317-15.134a34.172 34.172 0 00-2.865-15.013 75.119 75.119 0 00-5.619-9.01 26.149 26.149 0 01-4.351-9.617c-.613-3.487.112-7.377 2.615-9.886a13.672 13.672 0 017-3.3 19.516 19.516 0 017.953-.22 4.76 4.76 0 012.074.864 4.584 4.584 0 011.232 1.881c2.065 5.157.22 10.934-.978 16.359-.616 2.79-1.03 5.834.22 8.4 1.262 2.6 3.934 4.14 6.371 5.689s4.955 3.506 5.55 6.332a8.535 8.535 0 01-1.368 6.027c-1.087 1.809-2.545 3.361-3.8 5.052a28 28 0 00-4.113 24.877" class="prefix__cls-3" data-name="Tracé 65" transform="translate(203.045 -254.246)"/>
            </g>
        </g>
        <g id="prefix__Groupe_33" data-name="Groupe 33" transform="translate(2.355 205.427)">
            <path id="prefix__Tracé_66" d="M-44.6 214.679c0 17.057-22.278 30.883-49.758 30.883a76.3 76.3 0 01-20.1-2.621c-1.821-.5-15.333 2.621-15.333 2.621s5.749-6.045 3.777-7.053c-11.057-5.664-18.1-14.234-18.1-23.83 0-17.054 22.278-30.88 49.758-30.88s49.756 13.826 49.756 30.88z" class="prefix__cls-19" data-name="Tracé 66" transform="translate(164.118 -213.799)"/>
            <path id="prefix__Tracé_67" d="M-126.734 197.037a4.223 4.223 0 01-4.224 4.224 4.223 4.223 0 01-4.224-4.224 4.225 4.225 0 014.224-4.227 4.225 4.225 0 014.224 4.227z" class="prefix__cls-9" data-name="Tracé 67" transform="translate(182.164 -195.602)"/>
            <path id="prefix__Tracé_68" d="M-120.4 197.037a4.225 4.225 0 01-4.227 4.224 4.223 4.223 0 01-4.224-4.224 4.225 4.225 0 014.224-4.227 4.228 4.228 0 014.227 4.227z" class="prefix__cls-9" data-name="Tracé 68" transform="translate(194.941 -195.602)"/>
            <circle id="prefix__Ellipse_2" cx="4.225" cy="4.225" r="4.225" class="prefix__cls-9" data-name="Ellipse 2" transform="translate(85.19 -2.79)"/>
        </g>
        <g id="prefix__Groupe_35" data-name="Groupe 35" transform="translate(-15.471 299.94)">
            <path id="prefix__Tracé_73" d="M-121 236.719a5 5 0 00.368.667 2.361 2.361 0 001.377 1.147 1.845 1.845 0 001.486-.269 4.489 4.489 0 001.9-3.376 13.693 13.693 0 00-.423-5.354 19.127 19.127 0 00-2.395-5.534 10.946 10.946 0 00-4.466-4.106 10.463 10.463 0 00-5.876-.93 15.359 15.359 0 00-6.438 2.434 24.688 24.688 0 00-7.989 7.95 18.608 18.608 0 00-2.811 10.079 20.04 20.04 0 003.391 10.638 15.655 15.655 0 004.855 4.895 11.822 11.822 0 006.607 1.815 14.7 14.7 0 007.691-2.585 20.809 20.809 0 004.6-3.738 23.752 23.752 0 002.911-4.351 1.963 1.963 0 01.607-.725 1.554 1.554 0 011.839.236 1.306 1.306 0 01.426.4q.557.883-.453 2.651a36.133 36.133 0 01-3.315 4.777 19.881 19.881 0 01-4.623 3.868 18.818 18.818 0 01-9.813 3.315 14.907 14.907 0 01-8.373-2.292 19.971 19.971 0 01-6.157-6.235 23.473 23.473 0 01-3.94-12.476 22.444 22.444 0 013.243-11.96 28.311 28.311 0 019.327-9.387 18.862 18.862 0 018.636-3.128 13.769 13.769 0 017.66 1.479 14.99 14.99 0 015.671 5.335 19.754 19.754 0 012.814 7.346 15.466 15.466 0 01-.492 7.536 10.249 10.249 0 01-4.372 5.592 5.874 5.874 0 01-3.527.951 4.567 4.567 0 01-3.125-1.332 7.508 7.508 0 01-3.838 7.05 6.738 6.738 0 01-3.412 1.045 7.016 7.016 0 01-3.7-.909 8.388 8.388 0 01-3.056-2.947 14.413 14.413 0 01-2.032-6.072 15.485 15.485 0 01.634-6.785 8.7 8.7 0 013.583-4.828 5.094 5.094 0 012.935-.827 5.425 5.425 0 012.971 1.005l-.525-1.181a2.3 2.3 0 01-.051-1.543 2.641 2.641 0 011.235-1.461q2.16-1.372 3.255.347a5.125 5.125 0 01.365.664zm-7.386-3.566a3.4 3.4 0 00-2.382-1.8 4.113 4.113 0 00-2.739.731 4.44 4.44 0 00-1.954 2.983 9.843 9.843 0 00.091 4.3 12.753 12.753 0 001.615 4 3.905 3.905 0 002.186 1.845 3.1 3.1 0 002.5-.492 4.6 4.6 0 001.845-2.271 8.288 8.288 0 00.565-3 9.677 9.677 0 00-.332-2.684 12.411 12.411 0 00-1.397-3.612z" class="prefix__cls-9" data-name="Tracé 73" transform="translate(150.022 -215.1)"/>
        </g>
        <path id="prefix__Tracé_74" d="M-196.837 198.794a9.3 9.3 0 00-11.45 6.468c-1.646 5.918 4.469 18.651 4.469 18.651s11.8-7.754 13.449-13.672a9.276 9.276 0 00-6.468-11.447zm-3.865 13.9a5.132 5.132 0 01-3.536-6.308 5.105 5.105 0 016.274-3.545 5.114 5.114 0 013.581 6.284 5.142 5.142 0 01-6.317 3.575z" class="prefix__cls-9" data-name="Tracé 74" transform="translate(16.318 51.221)"/>
        <path id="prefix__Tracé_75" d="M-86.516 212.741l-6.794.7-.7-6.794a3.653 3.653 0 00-4.01-3.255 3.651 3.651 0 00-3.255 4.007l.7 6.8-6.794.7a3.652 3.652 0 00-3.258 4.01 3.653 3.653 0 004.01 3.255l6.794-.7.707 6.794a3.649 3.649 0 004.007 3.258 3.651 3.651 0 003.255-4.01l-.7-6.794 6.8-.707A3.651 3.651 0 00-82.507 216a3.65 3.65 0 00-4.009-3.259z" class="prefix__cls-19" data-name="Tracé 75" transform="translate(234.067 61.156)"/>
        <path id="prefix__Tracé_76" d="M-190.39 221.685l-3.376.35-.35-3.376a1.816 1.816 0 00-1.993-1.618 1.816 1.816 0 00-1.618 1.993l.35 3.376-3.376.35a1.816 1.816 0 00-1.618 1.993 1.814 1.814 0 001.993 1.615l3.376-.347.35 3.376a1.815 1.815 0 001.993 1.618 1.818 1.818 0 001.618-1.993l-.353-3.376 3.379-.35a1.817 1.817 0 001.615-1.996 1.816 1.816 0 00-1.99-1.615z" class="prefix__cls-9" data-name="Tracé 76" transform="translate(28.812 88.741)"/>
        <g id="prefix__Groupe_36" data-name="Groupe 36" transform="translate(-208.703 173.536)">
            <path id="prefix__Tracé_77" d="M-193.491 183.083q0-4.738 2.322-7.289a8.221 8.221 0 016.407-2.557 9.225 9.225 0 013.992.975 10.363 10.363 0 013.439 2.6 5.256 5.256 0 011.392 3.484 3.452 3.452 0 01-.6 2.225 4.254 4.254 0 01-1.721 1.211 4.765 4.765 0 00-2.6-.652 3.92 3.92 0 00-2.554.791 2.285 2.285 0 00-.972 1.809q0 2.323 2.6 3.714a9.325 9.325 0 001.253.468 4.889 4.889 0 011.628.882 2.559 2.559 0 01.743 2.089 3.279 3.279 0 01-1.208 2.832 5.394 5.394 0 01-3.252.882 7.488 7.488 0 01-5.2-2.416 19.838 19.838 0 01-4.088-5.665 13.045 13.045 0 01-1.581-5.383zm-20.526 0q0-4.738 2.322-7.289a8.226 8.226 0 016.407-2.557 9.248 9.248 0 013.995.975 10.321 10.321 0 013.436 2.6 5.271 5.271 0 011.392 3.484 3.452 3.452 0 01-.6 2.225 4.252 4.252 0 01-1.715 1.211 4.786 4.786 0 00-2.6-.652 3.911 3.911 0 00-2.551.791 2.292 2.292 0 00-.978 1.809q0 2.323 2.6 3.714a9.158 9.158 0 001.253.468 4.875 4.875 0 011.624.882 2.559 2.559 0 01.743 2.089 3.271 3.271 0 01-1.208 2.832 5.39 5.39 0 01-3.249.882 7.482 7.482 0 01-5.2-2.416 19.723 19.723 0 01-4.088-5.665 13.057 13.057 0 01-1.583-5.383z" class="prefix__cls-19" data-name="Tracé 77" transform="translate(214.017 -173.237)"/>
        </g>
    </g>
</svg>
