<svg xmlns="http://www.w3.org/2000/svg" id="prefix__laptop" width="47.181" height="36.27" viewBox="0 0 47.181 36.27">
    <defs>
        <style>
            .laptop-1{fill:#fff}
        </style>
    </defs>
    <g id="prefix__Groupe_54" data-name="Groupe 54">
        <g id="prefix__Groupe_53" data-name="Groupe 53">
            <path id="prefix__Tracé_96" d="M47.179 92.086v-.021a.677.677 0 00-.012-.08v-.008a.671.671 0 00-.02-.071l-.007-.018a.665.665 0 00-.026-.061v-.011l-3.7-7.291V60.539a1.339 1.339 0 00-1.342-1.339H5.109a1.339 1.339 0 00-1.338 1.338v23.987l-3.7 7.291v.011c-.01.02-.018.04-.026.061l-.007.018a.7.7 0 00-.02.071v.007a.681.681 0 00-.018.081v1.817a1.591 1.591 0 001.589 1.589h44a1.591 1.591 0 001.589-1.589v-1.753c.003-.015.002-.029.001-.043zM5.153 60.583h36.874V84H5.153zm-.267 24.8h37.408l3.07 6.056H30.18l-.762-2.763a1.3 1.3 0 00-1.255-.955h-9.145a1.3 1.3 0 00-1.255.955L17 91.438H1.816zm23.859 6.056h-10.31l.644-2.337H28.1zM45.8 93.882a.207.207 0 01-.207.207h-44a.207.207 0 01-.207-.207V92.82H45.8z" class="laptop-1" data-name="Tracé 96" transform="translate(0 -59.201)"/>
        </g>
    </g>
    <g id="prefix__Groupe_56" data-name="Groupe 56" transform="translate(6.627 14.242)">
        <g id="prefix__Groupe_55" data-name="Groupe 55">
            <path id="prefix__Tracé_97" d="M105.158 213.756a.691.691 0 00-.691.691v7.008H73.305v-7.008a.691.691 0 00-1.382 0v7.307a1.085 1.085 0 001.084 1.084h31.759a1.085 1.085 0 001.084-1.084v-7.307a.691.691 0 00-.692-.691z" class="laptop-1" data-name="Tracé 97" transform="translate(-71.923 -213.756)"/>
        </g>
    </g>
    <g id="prefix__Groupe_58" data-name="Groupe 58" transform="translate(6.627 2.857)">
        <g id="prefix__Groupe_57" data-name="Groupe 57">
            <path id="prefix__Tracé_98" d="M104.765 90.2H73.007a1.085 1.085 0 00-1.084 1.084v7.307a.691.691 0 001.382 0v-7.006h31.162v7.008a.691.691 0 001.382 0v-7.306a1.085 1.085 0 00-1.084-1.087z" class="laptop-1" data-name="Tracé 98" transform="translate(-71.923 -90.203)"/>
        </g>
    </g>
</svg>
