<?xml version="1.0" encoding="utf-8"?>
<!-- Generator: Adobe Illustrator 24.1.3, SVG Export Plug-In . SVG Version: 6.00 Build 0)  -->
<svg version="1.1" id="Calque_1" xmlns="http://www.w3.org/2000/svg" xmlns:xlink="http://www.w3.org/1999/xlink" x="0px" y="0px"
	 viewBox="0 0 920 540" style="enable-background:new 0 0 920 540;" xml:space="preserve">
<style type="text/css">
	.st0{clip-path:url(#SVGID_2_);}
	.st1{fill:none;}
	.st2{clip-path:url(#SVGID_4_);}
	.st3{fill:#080014;}
	.st4{fill:#5946FD;}
	.st5{fill:#2A08BD;}
	.st6{fill:url(#Tracé_19_1_);stroke:url(#Tracé_19_2_);stroke-miterlimit:10;}
</style>
<g>
	<g>
		<g>
			<g>
				<defs>
					<rect id="SVGID_1_" width="920" height="540"/>
				</defs>
				<clipPath id="SVGID_2_">
					<use xlink:href="#SVGID_1_"  style="overflow:visible;"/>
				</clipPath>
				<g id="Artboard_1" class="st0">
					<path id="Tracé_20" class="st1" d="M0,0h920v540H0V0z"/>
					<g id="Groupe_2">
						<g>
							<g>
								<g>
									<g>
										<defs>
											<rect id="SVGID_3_" width="920" height="540"/>
										</defs>
										<clipPath id="SVGID_4_">
											<use xlink:href="#SVGID_3_"  style="overflow:visible;"/>
										</clipPath>
										<g id="Groupe_1" class="st2">
											<path id="Tracé_1" class="st3" d="M340.3,251.3l4.1-7.1c0.7-1.3,2.4-1.7,3.6-1c0.1,0.1,0.2,0.1,0.3,0.2
												c0.6,0.3,9.9,7.1,17.4,7.1c6,0,10.5-3.9,10.5-8.9c0-5.9-5-9.9-14.6-13.8c-10.8-4.4-21.6-11.3-21.6-24.9
												c0-10.2,7.6-22.1,25.9-22.1c8.3,0.2,16.3,2.9,23,7.7c1.2,0.9,1.5,2.5,0.7,3.8l-4.4,6.6c-0.9,1.4-2.6,2.3-4,1.4
												c-0.9-0.6-9.7-6.3-16-6.3c-6.6,0-10.1,4.4-10.1,8.1c0,5.4,4.3,9.1,13.6,12.9c11.2,4.5,24.1,11.2,24.1,26
												c0,11.9-10.2,22.8-26.5,22.8c-14.5,0-23-6.8-25.3-9C339.8,253.7,339.3,253.1,340.3,251.3"/>
											<path id="Tracé_2" class="st3" d="M402.8,184.2c0-1.2,1-2.2,2.2-2.2l0,0h46.9c1.2,0,2.2,1,2.2,2.2l0,0v9.4
												c0,1.2-1,2.2-2.2,2.2l0,0h-34.1v18.9h28.4c1.2,0,2.1,1,2.2,2.2v9.6c0,1.2-1,2.2-2.2,2.2l0,0h-28.4v20.2h34.1
												c1.2,0,2.2,1,2.2,2.2l0,0v9.4c0,1.2-1,2.2-2.2,2.2l0,0H405c-1.2,0-2.2-1-2.2-2.2l0,0V184.2z"/>
											<path id="Tracé_3" class="st3" d="M465.9,184.2c0-1.2,1-2.2,2.2-2.2l0,0H501c13.8-0.1,25,11,25.1,24.8
												c0,10.6-7,19.2-17,23.3l15.8,29.2c0.6,1,0.3,2.4-0.7,3c-0.4,0.2-0.8,0.4-1.3,0.3h-12.1c-0.8,0-1.5-0.4-1.8-1L493.7,231
												h-12.8v29.4c0,1.2-1,2.1-2.2,2.2h-10.6c-1.2,0-2.2-1-2.2-2.2l0,0V184.2z M499.8,218.7c6.4-0.2,11.4-5.4,11.4-11.7
												c-0.2-6.2-5.2-11.1-11.4-11.2H481v22.9H499.8z"/>
											<path id="Tracé_4" class="st3" d="M527.6,185c-0.5-1-0.2-2.2,0.8-2.8c0.3-0.2,0.7-0.3,1.1-0.2h11.7c0.8,0,1.6,0.5,2,1.3
												l22.1,49.5h0.8l22.1-49.5c0.3-0.8,1.1-1.3,2-1.3h11.7c1.1-0.1,2.1,0.7,2.2,1.9c0,0.4,0,0.8-0.2,1.1l-35.7,77.5
												c-0.3,0.8-1.1,1.3-2,1.3H565c-0.9,0-1.6-0.5-2-1.3L527.6,185z"/>
											<path id="Rectangle_2" class="st3" d="M612,182h10.7c1.2,0,2.2,1,2.2,2.2v76.2c0,1.2-1,2.2-2.2,2.2H612
												c-1.2,0-2.2-1-2.2-2.2v-76.2C609.8,182.9,610.8,182,612,182z"/>
											<path id="Tracé_5" class="st3" d="M676.9,180.8c11.6,0,20,3.7,27.9,10.7c0.9,0.7,1.1,2.1,0.3,3
												c-0.1,0.1-0.1,0.1-0.2,0.2l-7,7.3c-0.6,0.8-1.8,0.9-2.6,0.3c-0.1-0.1-0.2-0.2-0.3-0.3c-4.9-4.3-11.2-6.7-17.7-6.8
												c-14.7,0-25.7,12.3-25.7,26.8c0,14.4,11.1,26.6,25.8,26.6c6.5-0.1,12.7-2.4,17.6-6.6c0.8-0.8,2.1-0.8,2.9,0l7.1,7.4
												c0.8,0.9,0.8,2.3-0.1,3.1l0,0c-7.5,7.3-17.5,11.3-28,11.2c-22.9,0.1-41.5-18.4-41.7-41.3s18.4-41.5,41.3-41.7
												C676.6,180.8,676.8,180.8,676.9,180.8"/>
											<path id="Tracé_6" class="st3" d="M715.4,184.2c0-1.2,1-2.2,2.2-2.2l0,0h46.9c1.2,0,2.2,1,2.2,2.2l0,0v9.4
												c0,1.2-1,2.2-2.2,2.2l0,0h-34.1v18.9h28.4c1.2,0,2.1,1,2.2,2.2v9.6c0,1.2-1,2.2-2.2,2.2l0,0h-28.4v20.2h34.1
												c1.2,0,2.2,1,2.2,2.2l0,0v9.4c0,1.2-1,2.2-2.2,2.2l0,0h-46.9c-1.2,0-2.2-1-2.2-2.2l0,0V184.2z"/>
											<path id="Tracé_7" class="st3" d="M773.8,251.3l4.1-7.1c0.7-1.3,2.4-1.7,3.6-1c0.1,0.1,0.2,0.1,0.3,0.2
												c0.6,0.3,9.9,7.1,17.4,7.1c6,0,10.5-3.9,10.5-8.9c0-5.9-5-9.9-14.6-13.8c-10.8-4.4-21.7-11.3-21.7-24.9
												c0-10.2,7.6-22.1,25.9-22.1c8.3,0.2,16.3,2.9,23,7.7c1.2,0.9,1.5,2.5,0.7,3.8l-4.4,6.6c-0.9,1.4-2.6,2.3-4,1.4
												c-0.9-0.6-9.7-6.3-16-6.3c-6.6,0-10.1,4.4-10.1,8.1c0,5.4,4.3,9.1,13.6,12.9c11.2,4.5,24.1,11.2,24.1,26
												c0,11.9-10.2,22.8-26.5,22.8c-14.5,0-23-6.8-25.3-9C773.3,253.7,772.7,253.1,773.8,251.3"/>
											<path id="Tracé_8" class="st3" d="M342.3,378.6c-0.4,0-0.8-0.3-0.8-0.8v-78c0-0.4,0.3-0.8,0.8-0.8h47.1
												c0.4,0,0.8,0.3,0.8,0.8v6.6c0,0.4-0.3,0.8-0.8,0.8h-38.7v27h32.9c0.4,0,0.7,0.4,0.8,0.8v6.6c0,0.4-0.3,0.8-0.8,0.8h-32.9
												v28.3h38.7c0.4,0,0.8,0.3,0.8,0.8v6.5c0,0.4-0.3,0.8-0.8,0.8L342.3,378.6z"/>
											<path id="Tracé_9" class="st3" d="M468.6,379.8L417.5,319h-2.1l-0.1,1.5v57.4c0,0.4-0.3,0.8-0.8,0.8H407
												c-0.4,0-0.7-0.4-0.8-0.8v-79.3c0.1-0.4,0.4-0.7,0.8-0.7h2.3l51.1,59.1h2.1l0.1-1.5v-55.7c0-0.4,0.3-0.8,0.8-0.8h7.5
												c0.4,0,0.7,0.4,0.8,0.8v79.3c-0.1,0.4-0.4,0.7-0.8,0.7H468.6z"/>
											<path id="Tracé_10" class="st3" d="M521.9,378.6c-0.4,0-0.8-0.3-0.8-0.8v-78c0-0.4,0.3-0.8,0.8-0.8h7.8
												c0.4,0,0.7,0.4,0.8,0.8v70.7h33.4c0.4,0,0.8,0.3,0.8,0.8v6.5c0,0.4-0.3,0.8-0.8,0.8L521.9,378.6L521.9,378.6z"/>
											<path id="Rectangle_3" class="st3" d="M576,299.1h7.8c0.4,0,0.8,0.3,0.8,0.8v78c0,0.4-0.3,0.8-0.8,0.8l0,0H576
												c-0.4,0-0.8-0.3-0.8-0.8l0,0v-78C575.2,299.4,575.6,299.1,576,299.1L576,299.1z"/>
											<path id="Tracé_11" class="st3" d="M640.6,379.8c-22.6,0.2-41.1-18-41.2-40.7s18-41.1,40.7-41.2c0.2,0,0.4,0,0.6,0
												c10.3,0,19.3,3.5,27.7,10.6c0.1,0.2,0.2,0.4,0.3,0.6c0,0.2-0.1,0.4-0.2,0.5c-0.9,1-1.8,1.9-2.7,2.8s-1.8,1.8-2.7,2.8
												c-0.1,0.1-0.2,0.2-0.3,0.3c-0.3-0.1-0.5-0.3-0.7-0.5c-6.1-5.3-13.8-8.4-21-8.4c-17.1,0-31,14.4-31,32.1
												c0,17.6,13.9,32,31,32c6.1,0,12.2-1.3,17.7-3.9c0.2-0.1,0.4-0.2,0.5-0.2l0.9-0.4v-15.7h-13c-0.4,0-0.7-0.2-0.8-0.6
												c0,0,0,0,0-0.1V343c0-0.4,0.2-0.7,0.6-0.8h0.1h21.4c0.4,0.1,0.7,0.4,0.7,0.8c0,4.7,0,9.5,0.1,14.3s0.1,9.5,0.1,14.2
												c-0.1,0.3-0.2,0.5-0.4,0.7C660.2,377.2,650.5,379.7,640.6,379.8"/>
											<path id="Tracé_12" class="st3" d="M748.3,379.8L697.2,319H695l-0.1,1.5v57.4c0,0.4-0.3,0.8-0.8,0.8h-7.4
												c-0.4,0-0.7-0.4-0.8-0.8v-79.3c0.1-0.4,0.4-0.7,0.8-0.7h2.3l51.1,59.1h2.1l0.1-1.5v-55.7c0-0.4,0.3-0.8,0.8-0.8h7.5
												c0.4,0,0.7,0.4,0.8,0.8v79.3c-0.1,0.4-0.4,0.7-0.8,0.7H748.3z"/>
											<path id="Tracé_13" class="st3" d="M773.3,378.6c-0.4,0-0.8-0.3-0.8-0.8v-78c0-0.4,0.3-0.8,0.8-0.8h47.1
												c0.4,0,0.8,0.3,0.8,0.8v6.6c0,0.4-0.3,0.8-0.8,0.8h-38.7v27h32.9c0.4,0,0.7,0.4,0.8,0.8v6.6c0,0.4-0.3,0.8-0.8,0.8h-32.9
												v28.3h38.7c0.4,0,0.8,0.3,0.8,0.8v6.5c0,0.4-0.3,0.8-0.8,0.8L773.3,378.6z"/>
											<path id="Tracé_14" class="st4" d="M227.1,152.8c-38.9,0-70.5,31.6-70.5,70.5s31.6,70.5,70.5,70.5s70.5-31.6,70.5-70.5
												C297.5,184.4,266,152.9,227.1,152.8"/>
											<path id="Tracé_15" class="st5" d="M201.8,152.8c-39.2,0-71,31.8-71,71s31.8,71,71,71s71-31.8,71-71
												S241,152.8,201.8,152.8L201.8,152.8 M201.8,279.6c-30.8,0-55.8-25-55.8-55.8s25-55.8,55.8-55.8s55.8,25,55.8,55.8l0,0
												C257.6,254.6,232.6,279.6,201.8,279.6"/>
											<rect id="Rectangle_4" x="195.7" y="211.4" class="st5" width="12.2" height="44.6"/>
											<path id="Tracé_16" class="st5" d="M195.9,213.9h12v-6.8h-17.3v1.5C193.5,208.6,195.9,211,195.9,213.9L195.9,213.9"/>
											<path id="Tracé_17" class="st5" d="M201.9,187.9h-0.1c-4,0-7.3,3.3-7.3,7.3v0.1c0,4,3.3,7.3,7.3,7.3l0,0h0.1
												c4,0,7.3-3.3,7.3-7.3v-0.1C209.2,191.2,205.9,187.9,201.9,187.9"/>
											<path id="Tracé_18" class="st5" d="M214.1,259.8h-24.6v-3.3c3.7,0,6.7-3,6.7-6.7h11.3c0,3.7,3,6.7,6.7,6.7l0,0
												L214.1,259.8z"/>
											
												<linearGradient id="Tracé_19_1_" gradientUnits="userSpaceOnUse" x1="96" y1="194.9635" x2="311.7692" y2="194.9635" gradientTransform="matrix(1 0 0 -1 0 542)">
												<stop  offset="0" style="stop-color:#FF7976"/>
												<stop  offset="0.2204" style="stop-color:#FF7976"/>
												<stop  offset="0.5688" style="stop-color:#FF046D"/>
												<stop  offset="1" style="stop-color:#FF046D"/>
											</linearGradient>
											
												<linearGradient id="Tracé_19_2_" gradientUnits="userSpaceOnUse" x1="95.3668" y1="194.9552" x2="312.2692" y2="194.9552" gradientTransform="matrix(1 0 0 -1 0 542)">
												<stop  offset="0" style="stop-color:#FF7976"/>
												<stop  offset="1" style="stop-color:#FF046D"/>
											</linearGradient>
											<path id="Tracé_19" class="st6" d="M311.6,326.1c0-0.2-0.1-0.4-0.1-0.6c-0.9-3.6-3.4-5.7-5.9-8.2
												c-3.2-3.2-6.8-6-10.7-8.3c-7.9-4.6-17-6.8-26.1-6.5c-0.9,0-1.7,0.1-2.6,0.2c-4.4,0.4-8.6,1.4-12.7,3l-33.7,12.9
												l-28.2,2.7l-29.1-8.1c-4.7-1.3-9.7,0.9-11.8,5.3l-0.1,0.2c-2.4,4.9-0.4,10.9,4.4,13.4l25.3,13.2l25.5-0.4
												c-10.6,8.3-26.8,20.8-27.7,20.5c-1.3-0.4-37.2-9.9-37.2-9.9s-12.1-12.3-24.2-22.2S96,336.5,96,336.5l38.5,41.4l63.6,13.7
												l9.9-3.1l23.4-7.2l27.2-8.4c3.5-1.1,7-2.1,10.6-3.1c6.8-2,13.2-3.6,19.3-7.2c5.7-3.4,10.8-7.7,15.1-12.8
												c3.4-4.1,5.6-9.2,7-14.3C311.7,332.5,312,329.3,311.6,326.1"/>
										</g>
									</g>
								</g>
							</g>
						</g>
					</g>
				</g>
			</g>
		</g>
	</g>
</g>
</svg>
