<svg xmlns="http://www.w3.org/2000/svg" width="164" height="164" viewBox="0 0 164 164">
    <g id="prefix__COMPARATIF" transform="translate(-882 -641)">
        <g id="prefix__Ellipse_4" data-name="Ellipse 4" transform="translate(882 641)" style="stroke:#a5a4a3;stroke-width:3px;fill:none">
            <circle cx="82" cy="82" r="82" style="stroke:none"/>
            <circle cx="82" cy="82" r="80.5" style="fill:none"/>
        </g>
        <g id="prefix__OFF-Comparatif" transform="translate(929 688)">
            <g id="prefix__Groupe_7" data-name="Groupe 7" transform="translate(.602 .602)">
                <path id="prefix__Tracé_27" d="M327.8 322.532l-6.738 6.738-.12.12-9.626-9.626a25.634 25.634 0 0 0 6.738-6.738l.12.12z" data-name="Tracé 27" transform="translate(-267.883 -269.348)" style="fill:#a5a4a3"/>
                <path id="prefix__Tracé_28" d="M71.611 64.873a4.85 4.85 0 0 1-6.858 6.858l-8.423-8.422.12-.12 6.738-6.738.12.12zm-24.787-11.31a27.763 27.763 0 1 1 6.738-6.738 25.632 25.632 0 0 1-6.738 6.738z" data-name="Tracé 28" transform="translate(-3.267 -3.267)" style="fill:#7c7f86"/>
                <path id="prefix__Tracé_29" d="M60.262 37.4A22.862 22.862 0 1 1 37.4 60.262 22.851 22.851 0 0 1 60.262 37.4" data-name="Tracé 29" transform="translate(-32.587 -32.587)" style="fill:#ede7e3"/>
            </g>
            <path id="prefix__Tracé_30" d="M65.577 70.991a5.8 5.8 0 0 1-3.85-1.564l-14.2-14.319a.6.6 0 1 1 .842-.842l14.2 14.319a3.991 3.991 0 0 0 3.008 1.2 4.747 4.747 0 0 0 3.008-1.2 3.991 3.991 0 0 0 1.2-3.008 4.5 4.5 0 0 0-1.2-3.008l-8.062-8.062-3.008 3.008a.6.6 0 1 1-.842-.842l3.369-3.373c.12-.12.241-.12.481-.12.12 0 .361.12.481.12l8.423 8.423a5.083 5.083 0 0 1 1.564 3.85 5.342 5.342 0 0 1-5.414 5.414zm-37.3-14.439a28.276 28.276 0 1 1 28.275-28.276 28.243 28.243 0 0 1-28.276 28.277zm0-55.349a27.073 27.073 0 1 0 27.072 27.073A27.114 27.114 0 0 0 28.276 1.2zm0 50.536a23.463 23.463 0 1 1 23.462-23.463 23.417 23.417 0 0 1-23.463 23.463zm0-45.723a22.26 22.26 0 1 0 22.26 22.26 22.287 22.287 0 0 0-22.261-22.26zm29 45a.724.724 0 0 1-.481-.12l-2.53-2.526c-.12-.12-.12-.241-.12-.481s0-.361.12-.481a.581.581 0 0 1 .842 0l2.527 2.527c.12.12.12.241.12.481s0 .361-.12.481a.442.442 0 0 1-.361.121zM36.7 39.707h-4.814a.6.6 0 1 1 0-1.2H36.7a.6.6 0 0 1 0 1.2zm-9.626 0h-9.627a.6.6 0 1 1 0-1.2h9.626a.6.6 0 1 1 0 1.2zm14.439-7.219h-14.44a.6.6 0 0 1 0-1.2h14.439a.6.6 0 1 1 0 1.2zm-19.252 0h-7.22a.6.6 0 1 1 0-1.2h7.219a.6.6 0 1 1 0 1.2zm19.252-7.219H36.7a.6.6 0 1 1 0-1.2h4.813a.6.6 0 1 1 0 1.2zm-9.626 0H15.041a.6.6 0 0 1 0-1.2h16.845a.6.6 0 1 1 0 1.2zm2.407-7.219h-14.44a.6.6 0 0 1 0-1.2h14.438a.6.6 0 1 1 0 1.2z" data-name="Tracé 30" style="fill:#51565f"/>
        </g>
    </g>
</svg>
