<svg xmlns="http://www.w3.org/2000/svg" width="164" height="164" viewBox="0 0 164 164">
    <defs>
        <style>
            .prefix__cls-2{fill:#ede7e3}.prefix__cls-3{fill:#a5a4a3}.prefix__cls-5{fill:#fff}
        </style>
    </defs>
    <g id="prefix__Creation" transform="translate(-235 -641)">
        <g id="prefix__Ellipse_3" data-name="Ellipse 3" transform="translate(235 641)" style="stroke:#acabaa;stroke-width:3px;fill:none">
            <circle cx="82" cy="82" r="82" style="stroke:none"/>
            <circle cx="82" cy="82" r="80.5" style="fill:none"/>
        </g>
        <g id="prefix__OFF-Creation">
            <g id="prefix__OFF_crea" data-name="OFF crea">
                <g id="prefix__click" transform="translate(278 684)">
                    <g id="prefix__Groupe_5" data-name="Groupe 5" transform="translate(.633 .767)">
                        <path id="prefix__Tracé_14" d="M35.158 320.66v-13.173H48.33v13.173h5.27a5.663 5.663 0 0 1 5.266 5.266H24.611a5.663 5.663 0 0 1 5.266-5.266zm11.2-26.36h33.6v7.906a5.2 5.2 0 0 1-5.266 5.266H8.8a5.2 5.2 0 0 1-5.266-5.266V294.3z" class="prefix__cls-2" data-name="Tracé 14" transform="translate(-3.533 -249.467)"/>
                        <g id="prefix__Groupe_4" data-name="Groupe 4">
                            <path id="prefix__Tracé_15" d="M244.746 328.4a1.313 1.313 0 1 1-1.313 1.313 1.32 1.32 0 0 1 1.313-1.313" class="prefix__cls-3" data-name="Tracé 15" transform="translate(-206.388 -278.301)"/>
                            <path id="prefix__Tracé_16" d="M79.956 9.117v39.531l-76.423.124V9.24A5.451 5.451 0 0 1 8.8 3.975h65.89a5.1 5.1 0 0 1 5.266 5.142" class="prefix__cls-3" data-name="Tracé 16" transform="translate(-3.533 -3.97)"/>
                        </g>
                        <path id="prefix__Tracé_17" d="M233.672 149.246h-27.41l-13.944-21.48c-.927-1.714-.818-3.552.772-4.617 1.714-.927 3.166-.139 4.355 1.575l10.145 14.1a3.478 3.478 0 0 1 6.053-3.428l.927 1.452a3.478 3.478 0 0 1 6.053-3.428l1.313 2.239a2.689 2.689 0 0 1 .926-3.552 2.82 2.82 0 0 1 3.552.927c-.263.139 4.617 7 7.258 16.214" class="prefix__cls-2" data-name="Tracé 17" transform="translate(-162.67 -104.413)"/>
                    </g>
                    <path id="prefix__Tracé_18" d="M56.565 77.89H22.3a.624.624 0 0 1-.664-.664 6.279 6.279 0 0 1 5.93-5.93h4.617v-7.242a.664.664 0 1 1 1.328 0V71.3h7.242a.664.664 0 1 1 0 1.328H27.565a5.035 5.035 0 0 0-4.617 3.953h32.814a5.035 5.035 0 0 0-4.617-3.953h-5.266a.624.624 0 0 1-.664-.664v-7.91a.664.664 0 0 1 1.328 0V71.3h4.617a6.279 6.279 0 0 1 5.93 5.93.49.49 0 0 1-.525.66zM31.471 23.981L41.6 39.671a.675.675 0 0 1-1.158.695l-10.221-15.86a4.973 4.973 0 0 1-.664-3.027 3.416 3.416 0 0 1 1.714-2.5c1.05-.664 3.027-1.189 5.142 1.714l8.57 12v-.263a3.767 3.767 0 0 1 1.977-2.5 4.409 4.409 0 0 1 3.166-.4 3.768 3.768 0 0 1 1.838 1.05 3.767 3.767 0 0 1 1.977-2.5 4.109 4.109 0 0 1 5.667 1.452 3.761 3.761 0 0 1 1.313-1.575 3.544 3.544 0 0 1 4.479 1.182 60.222 60.222 0 0 1 7.5 16.214c0 .263 0 .4-.139.525a.721.721 0 0 1-.525.263H1.746v7.242A4.62 4.62 0 0 0 6.363 58h65.891a4.62 4.62 0 0 0 4.617-4.617V5.93a4.63 4.63 0 0 0-4.617-4.617H6.363A4.867 4.867 0 0 0 1.746 5.93v34.25a.672.672 0 0 1-.664.679.62.62 0 0 1-.649-.659V5.93A6.172 6.172 0 0 1 6.363 0h65.891a5.931 5.931 0 0 1 5.93 5.93v47.438a5.748 5.748 0 0 1-5.791 6.069H6.486a5.931 5.931 0 0 1-5.93-5.93V45.6a.659.659 0 0 1 .664-.664h70.23a60.628 60.628 0 0 0-7.119-15.025 2 2 0 0 0-2.641-.788 2.124 2.124 0 0 0-.927 1.189 1.738 1.738 0 0 0 .139 1.452.681.681 0 0 1-1.189.664L58.4 30.189a2.816 2.816 0 0 0-3.814-1.05 2.832 2.832 0 0 0-1.05 3.83.681.681 0 1 1-1.189.664l-.927-1.452a2.8 2.8 0 0 0-5.142.664 2.849 2.849 0 0 0 .263 2.116.686.686 0 0 1-.263.927.786.786 0 0 1-.927-.139L35.208 21.65c-1.714-2.378-2.888-1.637-3.613-1.189-1.56.957-.124 3.52-.124 3.52zm7.953 30.189a1.977 1.977 0 1 1 1.976-1.976 2.032 2.032 0 0 1-1.976 1.977zm0-2.641a.664.664 0 1 0 .664.664.624.624 0 0 0-.664-.663zM23.488 31.888a.736.736 0 0 1-.525-.139c-.139-.139-.139-.263-.139-.525s0-.4.139-.525l3.691-3.691a.643.643 0 0 1 .927 0c.139.139.139.263.139.525s0 .4-.139.525l-3.691 3.691a.553.553 0 0 1-.402.139zm1.452-9.342h-5.266a.664.664 0 1 1 0-1.328h5.266a.624.624 0 0 1 .664.664.641.641 0 0 1-.664.663zM38.374 17a.736.736 0 0 1-.525-.139.671.671 0 0 1-.139-.525c0-.263 0-.4.139-.525l3.691-3.691a.643.643 0 0 1 .927 0c.139.139.139.263.139.525s0 .4-.139.525l-3.691 3.691a.516.516 0 0 1-.402.139zM27.3 17a.736.736 0 0 1-.525-.139l-3.691-3.675c-.139-.139-.139-.263-.139-.525s0-.4.139-.525a.643.643 0 0 1 .927 0l3.689 3.692c.139.139.139.263.139.525s0 .4-.139.525a.518.518 0 0 1-.4.122zm5.544-2.363a.624.624 0 0 1-.664-.664V8.709a.664.664 0 1 1 1.328 0v5.266a.641.641 0 0 1-.662.664z" data-name="Tracé 18" transform="translate(-.433)" style="fill:#51565f"/>
                </g>
                <g id="prefix__H-Creation" transform="translate(607.416 595.406)">
                    <path id="prefix__Tracé_66" d="M-285.656 223.13a.751.751 0 0 1-.536-.142c-.142-.142-.142-.268-.142-.536s0-.41.142-.536l3.766-3.766a.657.657 0 0 1 .945 0c.142.142.142.268.142.536s0 .41-.142.536l-3.766 3.766a.564.564 0 0 1-.409.142z" class="prefix__cls-5" data-name="Tracé 66" transform="translate(-20.809 -102.375)"/>
                    <path id="prefix__Tracé_67" d="M-304.983 183.08h-5.373a.637.637 0 0 1-.678-.678.637.637 0 0 1 .678-.678h5.373a.637.637 0 0 1 .678.678.654.654 0 0 1-.678.678z" class="prefix__cls-5" data-name="Tracé 67" transform="translate(0 -71.859)"/>
                    <path id="prefix__Tracé_68" d="M-189.256 126.73a.751.751 0 0 1-.536-.142.685.685 0 0 1-.142-.536c0-.268 0-.41.142-.536l3.766-3.766a.657.657 0 0 1 .945 0c.142.142.142.268.142.536s0 .41-.142.536l-3.766 3.766a.526.526 0 0 1-.409.142z" class="prefix__cls-5" data-name="Tracé 68" transform="translate(-102.017 -21.166)"/>
                    <path id="prefix__Tracé_69" d="M-281.089 126.815a.751.751 0 0 1-.536-.142l-3.766-3.75c-.142-.142-.142-.268-.142-.536s0-.41.142-.536a.657.657 0 0 1 .945 0l3.766 3.766c.142.142.142.268.142.536s0 .41-.142.536a.529.529 0 0 1-.409.126z" class="prefix__cls-5" data-name="Tracé 69" transform="translate(-21.483 -21.25)"/>
                    <path id="prefix__Tracé_70" d="M-225.056 103.154a.637.637 0 0 1-.678-.678V97.1a.637.637 0 0 1 .678-.678.637.637 0 0 1 .678.678v5.373a.654.654 0 0 1-.678.681z" class="prefix__cls-5" data-name="Tracé 70" transform="translate(-71.859)"/>
                </g>
            </g>
        </g>
    </g>
</svg>
