<svg xmlns="http://www.w3.org/2000/svg" width="164" height="164" viewBox="0 0 164 164">
    <defs>
        <style>
            .prefix__cls-2{fill:#ede7e3}.prefix__cls-3{fill:#51565f}.prefix__cls-4{fill:#a5a4a3}
        </style>
    </defs>
    <g id="prefix__PARAMETRAGE" transform="translate(-666 -641)">
        <g id="prefix__Ellipse_1" data-name="Ellipse 1" transform="translate(666 641)" style="stroke:#a5a4a3;stroke-width:3px;fill:none">
            <circle cx="82" cy="82" r="82" style="stroke:none"/>
            <circle cx="82" cy="82" r="80.5" style="fill:none"/>
        </g>
        <g id="prefix__OFF-PARAMETRAGE" transform="translate(709 684)">
            <g id="prefix__Groupe_6" data-name="Groupe 6" transform="translate(.132 .527)">
                <path id="prefix__Tracé_19" d="M76.809 88.173v57.98a5.125 5.125 0 0 1-5.271 5.271H61l-3.953-5.271a17.292 17.292 0 0 0 3.163-6.193c2.108-.4 4.217-.922 4.744-1.054.922-.132 1.318-1.054 1.318-1.977v-5.271a1.873 1.873 0 0 0-1.318-1.977c-.527-.132-2.635-.527-4.744-1.054a21.5 21.5 0 0 0-2.372-5.666c1.186-1.845 2.372-3.69 2.635-4.085.527-.791.264-1.581-.527-2.372l-3.69-3.69a1.848 1.848 0 0 0-2.372-.527c-.4.264-2.24 1.45-4.085 2.635a20.625 20.625 0 0 0-5.8-2.372c-.4-2.108-.922-4.217-1.054-4.744-.132-.922-1.054-1.318-1.977-1.318H35.7a1.873 1.873 0 0 0-1.977 1.318c-.132.527-.527 2.635-1.054 4.744a22.367 22.367 0 0 0-5.8 2.372c-1.845-1.186-3.69-2.372-4.085-2.635-.791-.527-1.581-.264-2.372.527l-3.69 3.69a1.848 1.848 0 0 0-.527 2.372c.264.4 1.45 2.24 2.635 4.085a21.5 21.5 0 0 0-2.372 5.666c-2.108.4-4.217.922-4.744 1.054-.922.132-1.318 1.054-1.318 1.977v5.271a1.873 1.873 0 0 0 1.318 1.977c.527.132 2.635.527 4.744 1.054a16.285 16.285 0 0 0 3.163 6.193l-3.953 5.271H5.125a5.2 5.2 0 0 1-5.271-5.271v-57.98zm-38.214 34.261a11.859 11.859 0 1 1-11.859 11.859 11.81 11.81 0 0 1 11.859-11.859z" class="prefix__cls-2" data-name="Tracé 19" transform="translate(.146 -74.996)"/>
                <path id="prefix__Tracé_20" d="M229.087 361.24a3.953 3.953 0 1 1-3.953 3.953 3.883 3.883 0 0 1 3.953-3.953" class="prefix__cls-3" data-name="Tracé 20" transform="translate(-190.346 -305.896)"/>
                <path id="prefix__Tracé_21" d="M111.066 234.592a11.859 11.859 0 1 0-11.859 11.859 11.81 11.81 0 0 0 11.859-11.859m15.813-2.635v5.271c0 1.054-.4 1.845-1.318 1.977-.4.132-2.635.527-4.744 1.054a17.293 17.293 0 0 1-3.163 6.193l3.953 5.271H76.8l3.953-5.271a17.292 17.292 0 0 1-3.163-6.193c-2.108-.4-4.217-.922-4.744-1.054a1.873 1.873 0 0 1-1.318-1.977v-5.271c0-1.054.4-1.845 1.318-1.977.4-.132 2.635-.527 4.744-1.054a21.5 21.5 0 0 1 2.372-5.666c-1.186-1.845-2.372-3.69-2.635-4.085a1.741 1.741 0 0 1 .527-2.372l3.69-3.69a1.879 1.879 0 0 1 2.372-.527c.4.264 2.24 1.45 4.085 2.635a20.625 20.625 0 0 1 5.8-2.372c.4-2.108.922-4.217 1.054-4.744a1.873 1.873 0 0 1 1.977-1.318h5.268c1.054 0 1.845.4 1.977 1.318.132.4.527 2.635 1.054 4.744a22.368 22.368 0 0 1 5.8 2.372c1.845-1.186 3.69-2.372 4.085-2.635a1.741 1.741 0 0 1 2.372.527l3.69 3.69a1.879 1.879 0 0 1 .527 2.372c-.264.4-1.45 2.24-2.635 4.085a21.5 21.5 0 0 1 2.372 5.666c2.108.4 4.217.922 4.744 1.054a2.523 2.523 0 0 1 .791 1.977" class="prefix__cls-4" data-name="Tracé 21" transform="translate(-60.465 -175.294)"/>
                <path id="prefix__Tracé_22" d="M79.695 8.111v7.906H3.267V8.111A5.286 5.286 0 0 1 8.538 2.84h65.886a5.286 5.286 0 0 1 5.271 5.271" class="prefix__cls-4" data-name="Tracé 22" transform="translate(-2.74 -2.84)"/>
                <path id="prefix__Tracé_23" d="M158.185 36.973a1.318 1.318 0 0 1 0 2.635 1.318 1.318 0 1 1 0-2.635z" data-name="Tracé 23" transform="translate(-132.621 -31.702)" style="fill:#abaaac"/>
                <path id="prefix__Tracé_24" d="M106.985 36.973a1.318 1.318 0 1 1-1.318 1.318 1.417 1.417 0 0 1 1.318-1.318" class="prefix__cls-2" data-name="Tracé 24" transform="translate(-89.327 -31.702)"/>
                <path id="prefix__Tracé_25" d="M55.785 36.973a1.318 1.318 0 1 1-1.318 1.318 1.417 1.417 0 0 1 1.318-1.318" data-name="Tracé 25" transform="translate(-46.034 -31.702)" style="fill:#9b9b9b"/>
            </g>
            <path id="prefix__Tracé_26" d="M71.816 78.041H61.274a.684.684 0 0 1-.527-.264l-3.953-5.271a.829.829 0 0 1 0-.791 14.907 14.907 0 0 0 3.031-5.93c0-.264.264-.4.527-.527 2.108-.4 4.217-.922 4.744-1.054.132 0 .791-.132.791-1.318v-5.27c0-1.186-.527-1.318-.791-1.318l-4.744-1.054c-.264 0-.4-.264-.527-.527a25.611 25.611 0 0 0-2.24-5.534.588.588 0 0 1 0-.659c1.186-1.845 2.372-3.69 2.635-4.085.132-.132.4-.659-.4-1.45l-3.69-3.69c-.791-.791-1.318-.527-1.45-.4L50.6 41.54a.588.588 0 0 1-.659 0 16.877 16.877 0 0 0-5.534-2.24c-.264 0-.4-.264-.527-.527-.4-2.108-.922-4.217-1.054-4.744 0-.132-.132-.791-1.318-.791h-5.271c-1.186 0-1.318.527-1.318.791l-1.054 4.744c0 .264-.264.4-.527.527a25.612 25.612 0 0 0-5.538 2.24.588.588 0 0 1-.659 0c-1.845-1.186-3.69-2.372-4.085-2.635-.132-.132-.659-.4-1.45.4l-3.69 3.69c-.791.791-.527 1.318-.4 1.45l2.635 4.085a.588.588 0 0 1 0 .659 16.877 16.877 0 0 0-2.24 5.534c0 .264-.264.4-.527.527-2.108.4-4.217.922-4.744 1.054-.132 0-.791.132-.791 1.318v5.271c0 1.186.527 1.318.791 1.318l4.744 1.054c.264 0 .4.264.527.527a15.873 15.873 0 0 0 3.031 5.93.652.652 0 0 1-.922.922 16.739 16.739 0 0 1-3.294-6.061l-4.348-.922a2.391 2.391 0 0 1-1.845-2.635v-5.278a2.391 2.391 0 0 1 1.845-2.635c.4-.132 2.372-.527 4.348-.922a22.165 22.165 0 0 1 2.108-5.139l-2.372-3.69c-.659-1.054-.4-2.108.527-3.163l3.69-3.69a2.338 2.338 0 0 1 3.163-.527c.4.264 1.977 1.318 3.69 2.372a22.165 22.165 0 0 1 5.139-2.108L33.6 33.9a2.391 2.391 0 0 1 2.635-1.845h5.271a2.391 2.391 0 0 1 2.638 1.845c.132.4.527 2.372.922 4.348a22.165 22.165 0 0 1 5.139 2.108l3.69-2.372c1.054-.659 2.108-.4 3.163.527l3.69 3.69a2.338 2.338 0 0 1 .527 3.163c-.264.4-1.318 1.977-2.372 3.69a22.165 22.165 0 0 1 2.107 5.136l4.348.922a2.391 2.391 0 0 1 1.842 2.636v5.271a2.391 2.391 0 0 1-1.845 2.635c-.4.132-2.372.527-4.348.922a16.559 16.559 0 0 1-2.9 5.666l3.426 4.612h10.283a4.5 4.5 0 0 0 4.612-4.612V6.357a4.669 4.669 0 0 0-4.612-4.612H5.93a4.669 4.669 0 0 0-4.612 4.612V13.6h70.5a.659.659 0 1 1 0 1.318H.659A.623.623 0 0 1 0 14.263V6.357A5.905 5.905 0 0 1 5.93.427h65.886a5.905 5.905 0 0 1 5.93 5.93v65.886a5.716 5.716 0 0 1-5.93 5.798zm-17.13 0H5.93A5.746 5.746 0 0 1 0 72.111V19.4a.623.623 0 0 1 .659-.659.623.623 0 0 1 .659.659v52.711a4.5 4.5 0 0 0 4.612 4.612h48.755a.659.659 0 1 1 0 1.318zM38.873 72.77a12.518 12.518 0 1 1 12.518-12.519A12.6 12.6 0 0 1 38.873 72.77zm0-23.719a11.2 11.2 0 1 0 11.2 11.2 11.191 11.191 0 0 0-11.2-11.2zm0 15.813a4.612 4.612 0 1 1 4.612-4.612 4.669 4.669 0 0 1-4.612 4.611zm0-7.906a3.294 3.294 0 1 0 3.294 3.294 3.262 3.262 0 0 0-3.294-3.295zM69.18 22.7h-5.271a.659.659 0 1 1 0-1.318h5.271a.659.659 0 1 1 0 1.318zm-10.542 0h-5.27a.659.659 0 1 1 0-1.318h5.271a.659.659 0 0 1 0 1.318zm-10.538 0h-5.274a.659.659 0 0 1 0-1.318H48.1a.659.659 0 0 1 0 1.318zm-28.99 0H8.565a.659.659 0 1 1 0-1.318h10.542a.659.659 0 0 1 0 1.318zM25.7 9.519a2.027 2.027 0 0 1-1.977-1.977 1.977 1.977 0 0 1 3.953 0A2.027 2.027 0 0 1 25.7 9.519zm0-2.635a.659.659 0 1 0 .659.659.623.623 0 0 0-.659-.659zm-7.911 2.635a2.027 2.027 0 0 1-1.977-1.977 1.977 1.977 0 0 1 3.953 0 2.027 2.027 0 0 1-1.976 1.977zm0-2.635a.659.659 0 1 0 .659.659.623.623 0 0 0-.659-.659zM9.883 9.519a2.027 2.027 0 0 1-1.977-1.976 1.977 1.977 0 1 1 3.953 0 2.027 2.027 0 0 1-1.976 1.976zm0-2.635a.659.659 0 1 0 .659.659.623.623 0 0 0-.659-.659z" class="prefix__cls-3" data-name="Tracé 26" transform="translate(0 -.427)"/>
        </g>
    </g>
</svg>
