<svg xmlns="http://www.w3.org/2000/svg" width="164" height="164" viewBox="0 0 164 164">
    <g id="prefix__HOVER-_Suppression" data-name="HOVER- Suppression" transform="translate(-451 -641)">
        <g id="prefix__Ellipse_2" data-name="Ellipse 2" transform="translate(451 641)" style="fill:rgba(72,159,181,.1);stroke:#16697a;stroke-width:3px">
            <circle cx="82" cy="82" r="82" style="stroke:none"/>
            <circle cx="82" cy="82" r="80.5" style="fill:none"/>
        </g>
        <g id="prefix__H-Suppression" transform="translate(494 684)">
            <g id="prefix__Groupe_2" data-name="Groupe 2" transform="translate(.725 .725)">
                <path id="prefix__Tracé_4" d="M33.01 152.318l25.827 25.827-19.5 19.5h-16.21L5.733 179.726a5.542 5.542 0 0 1 0-6.852l23.719-24.114z" data-name="Tracé 4" transform="translate(-4.547 -126.359)" style="fill:#ede7e3"/>
                <path id="prefix__Tracé_5" d="M170.106 29.652l25.827 25.828 20.557-20.557a5.25 5.25 0 0 0 0-7.511L194.352 5.274a5.1 5.1 0 0 0-7.379 0L166.68 25.963l3.426 3.69z" data-name="Tracé 5" transform="translate(-141.643 -3.693)" style="fill:#ffa62b"/>
            </g>
            <path id="prefix__Tracé_6" d="M42.3 77.943a1.672 1.672 0 0 1-.791-.132 2.126 2.126 0 0 1-1.054-1.845.659.659 0 0 1 1.318 0c0 .132 0 .527.264.659.132 0 .791.264 2.635-1.186a.659.659 0 0 1 .791 1.054 6.419 6.419 0 0 1-3.163 1.45zm-17 0h-2.639a.659.659 0 1 1 0-1.318H25.3a.659.659 0 1 1 0 1.318zm-13.177 0a.684.684 0 0 1-.527-.264c-1.318-1.713-1.713-3.031-1.318-3.953a2.126 2.126 0 0 1 1.845-1.054.659.659 0 1 1 0 1.318c-.132 0-.527 0-.659.264 0 .132-.264.791 1.186 2.635a.651.651 0 0 1-.132.922.485.485 0 0 1-.399.132zm38.214-2.635a.684.684 0 0 1-.527-.264.651.651 0 0 1 .132-.922c1.713-1.318 3.031-1.713 3.953-1.318a2.126 2.126 0 0 1 1.054 1.845.659.659 0 0 1-1.318 0c0-.132 0-.527-.264-.659-.132 0-.791-.264-2.635 1.186a.484.484 0 0 1-.399.132zm-30.18-2.636a1 1 0 0 1-.527-.264L2.236 54.488a6.152 6.152 0 0 1 0-7.775L46.248 1.779a5.887 5.887 0 0 1 8.433 0l22.138 22.138a5.566 5.566 0 0 1 1.713 4.217 6.347 6.347 0 0 1-1.713 4.217L56.263 52.775l-19.5 19.5c-.132.132-.264.132-.527.132H25.165a.659.659 0 0 1 0-1.318H35.97l18.844-18.842-24.9-24.9L7.376 49.875a.637.637 0 0 0 0 .922l15.153 15.154a.652.652 0 0 1-.922.922L6.453 51.721a1.911 1.911 0 0 1 0-2.767L28.986 26.42l-2.635-2.635L3.159 47.5a4.746 4.746 0 0 0 0 5.8l17.394 17.923a.637.637 0 0 1 0 .922c-.132.527-.264.527-.396.527zm10.806-45.988l24.9 24.9 20.166-20.025a4.371 4.371 0 0 0 1.318-3.294 5.2 5.2 0 0 0-1.318-3.294L54.286 3.228zM27.4 23.126l2.635 2.635L53.232 2.438a4.783 4.783 0 0 0-6.061.4z" data-name="Tracé 6" transform="translate(-.853)" style="fill:#51565f"/>
        </g>
    </g>
</svg>
